<svg xmlns="http://www.w3.org/2000/svg" version="1.1" xmlns:xlink="http://www.w3.org/1999/xlink" xmlns:svgjs="http://svgjs.dev/svgjs" width="100%" height="100%" viewBox="0 0 1000 600"><rect width="1000" height="600" x="0" y="0" fill="#2b3252"/><g><rect width="333.3333333333333" height="333.3333333333333" rx="13.333333333333334" ry="13.333333333333334" y="246.44929656205946" fill="#fad744" transform="matrix(0.5574705324978496,0,0,0.5574705324978496,0,69.70000610593792)" x="224.2270965576172"/><path d="M447.2958662558239 485.2799583066546L447.2958662558239 485.2799583066546Q447.91361243948415 486.48737130199044 447.604739347654 487.3016730895425Q447.2958662558239 488.1159748770945 446.0884532604881 488.1159748770945L446.0884532604881 488.1159748770945L429.52162378960134 488.1159748770945Q426.68560721916145 488.1159748770945 425.87130543160936 486.2908156980985L425.87130543160936 486.2908156980985L381.1970246041842 411.683924335139Q379.9896116088484 409.88684452812754 378.1644524298524 411.9085593110154L378.1644524298524 411.9085593110154L354.9147324266418 438.3874070924497Q353.51076382741417 439.98793129556924 353.51076382741417 442.00964607845714L353.51076382741417 442.00964607845714L353.51076382741417 485.0834027027627Q353.51076382741417 488.1159748770945 350.05700107331404 488.1159748770945L350.05700107331404 488.1159748770945L337.1124105884347 488.1159748770945Q335.51188638531517 488.1159748770945 334.8099020857013 487.4982286934343Q334.0798384141029 486.9085618817587 334.0798384141029 485.47651391054643L334.0798384141029 485.47651391054643L334.0798384141029 340.53079572627956Q334.0798384141029 338.1159697356079 336.3261881728672 338.1159697356079L336.3261881728672 338.1159697356079L351.26441406864984 338.1159697356079Q353.51076382741417 338.1159697356079 353.51076382741417 340.53079572627956L353.51076382741417 340.53079572627956L353.51076382741417 414.7164965094708Q353.51076382741417 415.9519888767912 353.90387503519787 416.03622699274484Q354.29698624298163 416.14854448068303 355.3078436344256 415.13768708923914L355.3078436344256 415.13768708923914L421.6313202619417 339.9130495426194Q422.4456220494938 338.9021921511754 423.25992383704585 338.5090809433917Q424.04614625261337 338.1159697356079 425.6747498277175 338.1159697356079L425.6747498277175 338.1159697356079L439.6301977040407 338.1159697356079Q441.45535688303676 338.1159697356079 441.84846809082046 339.01450963911367Q442.2415792986043 339.9130495426194 441.23072190716033 340.9239069340633L441.23072190716033 340.9239069340633L394.1416150890635 393.4884912891481Q393.3273133015115 394.7239836564685 394.1416150890635 396.1279522556962L394.1416150890635 396.1279522556962L447.2958662558239 485.2799583066546Z " fill="#2b3252" transform="matrix(0.5574705324978496,0,0,0.5574705324978496,0,69.70000610593792)"/><path d="M732.5023626461826 457.19352289709275L732.5023626461826 457.19352289709275Q733.0022111445834 458.1704995076033 732.752286895383 458.8293907100406Q732.5023626461826 459.488281912478 731.525386035672 459.488281912478L731.525386035672 459.488281912478L718.1203581240159 459.488281912478Q715.8255991086307 459.488281912478 715.1667079061933 458.0114568035667L715.1667079061933 458.0114568035667L679.0185733173034 397.6433904285319Q678.0415967067929 396.18928570591163 676.5647715978816 397.8251535188595L676.5647715978816 397.8251535188595L657.7522917489812 419.25047779121843Q656.616272434434 420.54553980980216 656.616272434434 422.18140762275004L656.616272434434 422.18140762275004L656.616272434434 457.03448019305614Q656.616272434434 459.488281912478 653.8216649206481 459.488281912478L653.8216649206481 459.488281912478L643.3475668405235 459.488281912478Q642.0525048219397 459.488281912478 641.4844951646662 458.98843341407724Q640.8937651211016 458.5113053019674 640.8937651211016 457.35256560112936L640.8937651211016 457.35256560112936L640.8937651211016 340.0699315672831Q640.8937651211016 338.11597834626207 642.7113960243771 338.11597834626207L642.7113960243771 338.11597834626207L654.7986415311586 338.11597834626207Q656.616272434434 338.11597834626207 656.616272434434 340.0699315672831L656.616272434434 340.0699315672831L656.616272434434 400.09719214795376Q656.616272434434 401.0968891447552 656.9343578425072 401.16505030362805Q657.2524432505804 401.2559318487918 658.0703771570543 400.4379979423179L658.0703771570543 400.4379979423179L711.735929576261 339.5700830688824Q712.3948207786983 338.75214916240844 713.0537119811356 338.4340637543353Q713.689882797282 338.11597834626207 715.0076652021568 338.11597834626207L715.0076652021568 338.11597834626207L726.2996971887553 338.11597834626207Q727.7765222976666 338.11597834626207 728.0946077057397 338.8430307075722Q728.4126931138129 339.5700830688824 727.5947592073389 340.3880169753563L727.5947592073389 340.3880169753563L689.4926713974281 382.92058011200106Q688.8337801949908 383.92027710880257 689.4926713974281 385.0562964233497L689.4926713974281 385.0562964233497L732.5023626461826 457.19352289709275ZM797.778032460061 449.01418383235335L797.778032460061 449.01418383235335Q791.7344097066702 454.89876388170757 784.6229287976051 458.0114568035667Q777.4887275022492 461.12414972542587 768.8322603254 461.12414972542587L768.8322603254 461.12414972542587Q756.0634032298902 461.12414972542587 748.7019980716248 454.58067847363435Q741.3405929133593 448.03720722184283 741.3405929133593 437.40406643768165L741.3405929133593 437.40406643768165Q741.3405929133593 428.72487887454156 746.3390778973668 422.4313318719504Q751.3148424950832 416.1377848693593 760.902845509861 412.4570822902266Q770.4681281383479 408.77637971109385 784.5320472524414 407.95844580461994L784.5320472524414 407.95844580461994L797.3009043479511 406.98146919410937Q798.4369236624983 406.8224264900728 799.1639760238085 406.32257799167206Q799.9137487714096 405.8227294932713 799.9137487714096 404.5276674746876L799.9137487714096 404.5276674746876L799.9137487714096 400.09719214795376Q799.9137487714096 391.281682267068 794.5062968341653 386.124154579024Q789.1215652832118 380.96662689097997 779.6244438135978 380.96662689097997L779.6244438135978 380.96662689097997Q772.5811240634056 380.96662689097997 766.6965440140514 384.2383625168757Q760.8119639646973 387.5100981427715 756.2224459339268 394.053569394563L756.2224459339268 394.053569394563Q755.745317821817 394.8715033010369 755.2454693234163 395.1214275502373Q754.7683412113065 395.37135179943766 753.768644214505 395.0305460050735L753.768644214505 395.0305460050735L745.1121770376558 392.0996161735419Q744.4532858352185 391.75881037917776 744.2942431311819 391.281682267068Q744.1352004271453 390.78183376866724 744.7713712432917 389.4640513637926L744.7713712432917 389.4640513637926Q749.5199319780987 380.96662689097997 758.517204949312 376.0590234521364Q767.5144779205253 371.15142001329275 780.2833350160352 371.15142001329275L780.2833350160352 371.15142001329275Q791.2345612082695 371.15142001329275 798.5278052076621 374.5140371843523Q805.7983288207638 377.8539339691209 809.5699129450603 384.147480971712Q813.3187766830658 390.463748360594 813.3187766830658 399.12021553744324L813.3187766830658 399.12021553744324L813.3187766830658 457.03448019305614Q813.3187766830658 458.5113053019674 812.7507670257922 458.98843341407724Q812.1827573685187 459.488281912478 811.0240176676806 459.488281912478L811.0240176676806 459.488281912478L802.6856358989047 459.488281912478Q801.7086592883941 459.488281912478 801.1406496311205 458.7612295511678Q800.572639973847 458.0114568035667 800.572639973847 456.8754374890196L800.572639973847 456.8754374890196L800.2318341794828 449.35498962671755Q799.9137487714096 447.0602306113323 797.778032460061 449.01418383235335L797.778032460061 449.01418383235335ZM799.9137487714096 417.93269538634377L799.9137487714096 417.93269538634377Q799.9137487714096 415.16080825884876 797.6189897560243 415.31985096288537L797.6189897560243 415.31985096288537L786.8268062678266 416.2968275733959Q779.3063584055246 416.63763336776003 773.3990579698794 418.18261963554414Q767.5144779205253 419.72760590332825 763.4248083881556 422.18140762275004Q759.335138855786 424.63520934217183 757.2221429307283 427.99782651323136Q755.0864266193797 431.36044368429094 755.0864266193797 435.76819862473377L755.0864266193797 435.76819862473377Q755.0864266193797 442.97056107896265 760.084911603387 446.96934906616855Q765.0606762011035 450.9908574396654 773.580821060207 450.9908574396654L773.580821060207 450.9908574396654Q778.8065099071239 450.9908574396654 783.6232318008036 449.1050653775172Q788.4626740807745 447.2192733153689 792.21153781878 444.2656230975464L792.21153781878 444.2656230975464Q795.82407923904 441.17565056197816 797.8689140052247 437.9039149360824Q799.9137487714096 434.63217931018664 799.9137487714096 431.5194863883275L799.9137487714096 431.5194863883275L799.9137487714096 417.93269538634377ZM866.9843291022725 450.3319662372281L866.9843291022725 450.3319662372281Q874.0049284661737 450.3319662372281 880.4802385590924 446.4922209540587Q886.9328282657201 442.6297552845985 893.3172568134751 436.086284032807L893.3172568134751 436.086284032807L893.3172568134751 375.2410895456624Q893.3172568134751 372.78728782624063 895.9301012369334 372.78728782624063L895.9301012369334 372.78728782624063L904.9273742081467 372.78728782624063Q907.2221332235321 372.78728782624063 907.2221332235321 375.08204684162587L907.2221332235321 375.08204684162587L906.9040478154587 457.35256560112936Q906.9040478154587 459.488281912478 905.0864169121834 459.488281912478L905.0864169121834 459.488281912478L895.6120158288603 459.488281912478Q893.8171053118758 459.488281912478 893.8171053118758 457.6933713954935L893.8171053118758 457.6933713954935L893.8171053118758 448.03720722184283Q893.8171053118758 447.2192733153689 893.4762995175116 447.0602306113323Q893.1582141094385 446.9011879072957 892.3402802029645 447.5373587234421L892.3402802029645 447.5373587234421Q883.3430072317512 455.23956967607165 876.3905690267228 458.1704995076033Q869.4381308216942 461.12414972542587 862.5538537755386 461.12414972542587L862.5538537755386 461.12414972542587Q855.0334059132366 461.12414972542587 849.1488258638825 458.0114568035667Q843.2642458145283 454.89876388170757 839.833467484596 449.26410808155373Q836.3799687683726 443.62945228139995 836.3799687683726 436.086284032807L836.3799687683726 436.086284032807L836.3799687683726 375.400132249699Q836.3799687683726 372.78728782624063 838.8337704877944 372.78728782624063L838.8337704877944 372.78728782624063L848.0128065493353 372.78728782624063Q850.125802474393 372.78728782624063 850.125802474393 375.08204684162587L850.125802474393 375.08204684162587L850.125802474393 432.496462998838Q850.125802474393 440.5167593595408 854.6244389599996 445.42436279838444Q859.1230754456063 450.3319662372281 866.9843291022725 450.3319662372281L866.9843291022725 450.3319662372281ZM984.2669631361188 391.91785308321437L984.2669631361188 391.91785308321437Q980.9952275102229 387.01024964437073 975.1106474608688 383.92027710880257Q969.2260674115147 380.8075841869434 961.0467283467752 380.8075841869434L961.0467283467752 380.8075841869434Q952.2084980795986 380.8075841869434 946.3920791891172 384.55644792494894Q940.5983806849268 388.32803204924545 940.5983806849268 394.7124605970003L940.5983806849268 394.7124605970003Q940.5983806849268 398.14323892693267 943.2112251083853 401.16505030362805Q945.8240695318436 404.18686168032343 953.8443658925464 406.8224264900728L953.8443658925464 406.8224264900728L974.610798962468 413.02509194750013Q985.9028309490666 416.1377848693593 990.901315933074 422.0223649187135Q995.8770805307904 427.90694496806765 995.8770805307904 435.6091559206972L995.8770805307904 435.6091559206972Q995.8770805307904 443.2886464870358 991.3102828863109 449.01418383235335Q986.7207648555406 454.7397211776709 978.7004684948378 457.9432956446939Q970.702892520426 461.12414972542587 960.5468798483745 461.12414972542587L960.5468798483745 461.12414972542587Q947.6189800488281 461.12414972542587 937.9855362614684 455.96662203738185Q928.3293720878178 450.80909434933784 924.239702555448 443.12960378299925L924.239702555448 443.12960378299925Q923.7398540570473 442.3116698765253 923.7398540570473 441.652778674088Q923.7398540570473 440.9938874716506 924.5577879635213 440.5167593595408L924.5577879635213 440.5167593595408L930.9422165112761 436.90421793928095Q931.7601504177502 436.42708982717113 932.4190416201874 436.49525098604397Q933.0779328226248 436.58613253120774 933.3960182306979 437.0859810296085L933.3960182306979 437.0859810296085Q936.167905358193 441.33469326601477 939.8486079373257 444.4473861878739Q943.5293105164584 447.5373587234421 948.6868382045024 449.35498962671755Q953.8443658925464 451.149900143702 960.7059225524112 451.149900143702L960.7059225524112 451.149900143702Q966.9313083961293 450.9908574396654 971.9979545390096 449.35498962671755Q977.0646006818898 447.7191218137696 980.0182508997125 444.5155473467467Q982.9719011175349 441.33469326601477 982.9719011175349 437.0859810296085L982.9719011175349 437.0859810296085Q982.9719011175349 432.6555057028746 979.359359697275 429.47465162214263Q975.7695386633062 426.2710771551197 966.9313083961293 423.8172754356979L966.9313083961293 423.8172754356979L950.0727817682499 419.0914350871819Q937.8037731711408 415.8196994612861 932.8280085734244 410.2532048200051Q927.829523589417 404.6867101787242 927.6704808853805 397.16626231642215L927.6704808853805 397.16626231642215Q927.6704808853805 389.30500865975597 931.9191931217866 383.5113101555656Q936.167905358193 377.69489126508427 943.7792347656588 374.4231556391885Q951.3905641731245 371.15142001329275 961.2057710508119 371.15142001329275L961.2057710508119 371.15142001329275Q972.1569972430462 371.15142001329275 980.7453032610225 375.3319710908262Q989.333609278999 379.4898017820687 993.7640846057328 386.37407882822436L993.7640846057328 386.37407882822436Q994.2412127178426 387.01024964437073 994.2412127178426 387.60097968793525Q994.2412127178426 388.16898934520884 993.6050419016962 388.6461174573186L993.6050419016962 388.6461174573186L986.7207648555406 392.4177015816151Q986.0618736531031 392.73578698968834 985.4938639958297 392.6676258308155Q984.9258543385561 392.5767442856517 984.2669631361188 391.91785308321437L984.2669631361188 391.91785308321437ZM1065.9013110794758 449.01418383235335L1065.9013110794758 449.01418383235335Q1059.8576883260848 454.89876388170757 1052.723487030729 458.0114568035667Q1045.6120061216639 461.12414972542587 1036.9555389448149 461.12414972542587L1036.9555389448149 461.12414972542587Q1024.186681849305 461.12414972542587 1016.8252766910397 454.58067847363435Q1009.4638715327741 448.03720722184283 1009.4638715327741 437.40406643768165L1009.4638715327741 437.40406643768165Q1009.4638715327741 428.72487887454156 1014.4623565167816 422.4313318719504Q1019.438121114498 416.1377848693593 1029.003403742985 412.4570822902266Q1038.5914067577628 408.77637971109385 1052.6553258718563 407.95844580461994L1052.6553258718563 407.95844580461994L1065.401462581075 406.98146919410937Q1066.560202281913 406.8224264900728 1067.2872546432232 406.32257799167206Q1068.0370273908243 405.8227294932713 1068.0370273908243 404.5276674746876L1068.0370273908243 404.5276674746876L1068.0370273908243 400.09719214795376Q1068.0370273908243 391.281682267068 1062.62957545358 386.124154579024Q1057.2221235163356 380.96662689097997 1047.7477224330128 380.96662689097997L1047.7477224330128 380.96662689097997Q1040.7044026828203 380.96662689097997 1034.8198226334662 384.2383625168757Q1028.935242584112 387.5100981427715 1024.3457245533416 394.053569394563L1024.3457245533416 394.053569394563Q1023.8685964412318 394.8715033010369 1023.3687479428311 395.1214275502373Q1022.8688994444303 395.37135179943766 1021.8919228339198 395.0305460050735L1021.8919228339198 395.0305460050735L1013.2354556570707 392.0996161735419Q1012.5765644546333 391.75881037917776 1012.4175217505966 391.281682267068Q1012.2357586602692 390.78183376866724 1012.8946498627065 389.4640513637926L1012.8946498627065 389.4640513637926Q1017.6432105975135 380.96662689097997 1026.6404835687267 376.0590234521364Q1035.6377565399403 371.15142001329275 1048.40661363545 371.15142001329275L1048.40661363545 371.15142001329275Q1059.357839827684 371.15142001329275 1066.628363440786 374.5140371843523Q1073.9216074401784 377.8539339691209 1077.670471178184 384.147480971712Q1081.4420553024806 390.463748360594 1081.4420553024806 399.12021553744324L1081.4420553024806 399.12021553744324L1081.4420553024806 457.03448019305614Q1081.4420553024806 458.5113053019674 1080.874045645207 458.98843341407724Q1080.3060359879335 459.488281912478 1079.1472962870953 459.488281912478L1079.1472962870953 459.488281912478L1070.8089145183194 459.488281912478Q1069.8319379078089 459.488281912478 1069.2639282505352 458.7612295511678Q1068.673198206971 458.0114568035667 1068.673198206971 456.8754374890196L1068.673198206971 456.8754374890196L1068.3551127988976 449.35498962671755Q1068.0370273908243 447.0602306113323 1065.9013110794758 449.01418383235335L1065.9013110794758 449.01418383235335ZM1068.0370273908243 417.93269538634377L1068.0370273908243 417.93269538634377Q1068.0370273908243 415.16080825884876 1065.7422683754394 415.31985096288537L1065.7422683754394 415.31985096288537L1054.9500848872412 416.2968275733959Q1047.4069166386485 416.63763336776003 1041.5223365892944 418.18261963554414Q1035.6377565399403 419.72760590332825 1031.5480870075703 422.18140762275004Q1027.4584174752008 424.63520934217183 1025.3227011638523 427.99782651323136Q1023.2097052387945 431.36044368429094 1023.2097052387945 435.76819862473377L1023.2097052387945 435.76819862473377Q1023.2097052387945 442.97056107896265 1028.185469836511 446.96934906616855Q1033.1839548205185 450.9908574396654 1041.6813792933308 450.9908574396654L1041.6813792933308 450.9908574396654Q1046.9297885265387 450.9908574396654 1051.7465104202183 449.1050653775172Q1056.5859527001894 447.2192733153689 1060.334816438195 444.2656230975464L1060.334816438195 444.2656230975464Q1063.9473578584548 441.17565056197816 1065.9921926246398 437.9039149360824Q1068.0370273908243 434.63217931018664 1068.0370273908243 431.5194863883275L1068.0370273908243 431.5194863883275L1068.0370273908243 417.93269538634377ZM1107.9340257177198 459.488281912478L1107.9340257177198 459.488281912478Q1106.7980064031726 459.488281912478 1106.229996745899 458.9202722552044Q1105.6619870886257 458.35226259793086 1105.6619870886257 457.35256560112936L1105.6619870886257 457.35256560112936L1105.6619870886257 374.92300413758926Q1105.6619870886257 372.78728782624063 1107.45689760561 372.78728782624063L1107.45689760561 372.78728782624063L1116.931298688933 372.78728782624063Q1118.7489295922087 372.78728782624063 1118.7489295922087 374.5821983432251L1118.7489295922087 374.5821983432251L1118.7489295922087 385.2153391273863Q1118.7489295922087 386.1923157378968 1119.2260577043185 386.37407882822436Q1119.725906202719 386.53312153226096 1120.5438401091928 385.715187625787L1120.5438401091928 385.715187625787Q1124.7925523455992 380.6485414829068 1128.9731034231327 377.4449670158839Q1133.1309341143751 374.2641129351519 1137.3796463507815 372.69640628107686Q1141.651078973479 371.15142001329275 1145.899791209885 371.15142001329275L1145.899791209885 371.15142001329275Q1151.6253285552027 371.15142001329275 1151.6253285552027 373.2871363246414L1151.6253285552027 373.2871363246414L1151.6253285552027 383.1023432023286Q1151.6253285552027 384.7382110152765 1150.1485034462912 384.39740522091233L1150.1485034462912 384.39740522091233Q1148.67167833738 384.2383625168757 1146.7858862752319 384.0793198128392Q1144.9228145993743 383.92027710880257 1142.7870982880258 383.92027710880257L1142.7870982880258 383.92027710880257Q1139.197277254057 383.92027710880257 1135.1076077216871 385.4652633765867Q1131.0179381893176 387.01024964437073 1127.4962783142214 389.8048571581567Q1123.9746184391252 392.5767442856517 1121.6798594237403 396.00752261558404Q1119.385100408355 399.46102133180733 1119.385100408355 402.8917996617397L1119.385100408355 402.8917996617397L1119.385100408355 457.03448019305614Q1119.385100408355 459.488281912478 1116.931298688933 459.488281912478L1116.931298688933 459.488281912478L1107.9340257177198 459.488281912478ZM1230.3060262807371 469.3034887901652L1230.3060262807371 476.505851244394Q1230.3060262807371 478.6188471694517 1227.693181857279 478.6188471694517L1227.693181857279 478.6188471694517L1167.9840066846814 478.80061025977926Q1166.8252669838434 478.80061025977926 1166.3481388717335 478.3007617613785Q1165.8482903733327 477.80091326297776 1165.8482903733327 476.82393665246724L1165.8482903733327 476.82393665246724L1165.8482903733327 469.6215741982384Q1165.8482903733327 467.6676209772174 1167.325115482244 467.6676209772174L1167.325115482244 467.6676209772174L1228.6701584677894 467.6676209772174Q1230.3060262807371 467.6676209772174 1230.3060262807371 469.3034887901652L1230.3060262807371 469.3034887901652ZM1260.887666228346 459.488281912478L1255.661977381429 459.488281912478Q1254.1851522725183 459.488281912478 1253.6171426152446 458.8293907100406Q1253.0491329579709 458.1704995076033 1253.0491329579709 456.8754374890196L1253.0491329579709 456.8754374890196L1253.0491329579709 340.3880169753563Q1253.0491329579709 338.11597834626207 1255.003086178992 338.11597834626207L1255.003086178992 338.11597834626207L1265.1590988510434 338.11597834626207Q1266.794966663991 338.11597834626207 1266.794966663991 340.3880169753563L1266.794966663991 340.3880169753563L1266.794966663991 380.4667783925793Q1266.794966663991 382.2844092958547 1267.4311374801377 382.3525704547275Q1268.090028682575 382.4434519998913 1269.2487683834129 381.4664753893807L1269.2487683834129 381.4664753893807Q1270.7028731060336 379.98965028046945 1274.065490277093 377.53584856104766Q1277.4281074481523 375.08204684162587 1282.7446778402332 373.10537323431384Q1288.0612482323136 371.15142001329275 1295.422653390579 371.15142001329275L1295.422653390579 371.15142001329275Q1307.350856193324 371.15142001329275 1315.0530671459533 377.0360000626469Q1322.732557712292 382.92058011200106 1326.5723029954615 392.98571123888865Q1330.4120482786307 403.0508423657763 1330.4120482786307 415.6379363709586L1330.4120482786307 415.6379363709586Q1330.4120482786307 436.58613253120774 1320.5968414009435 448.8551411283168Q1310.7816345232563 461.12414972542587 1293.127894375194 461.12414972542587L1293.127894375194 461.12414972542587Q1285.6074465128918 461.12414972542587 1280.2908761208114 458.8293907100406Q1274.9743057287305 456.5346316946554 1271.5208070125072 453.4446591590872Q1268.090028682575 450.3319662372281 1266.4541608696272 448.19624992587944L1266.4541608696272 448.19624992587944Q1265.7952696671896 447.37831601940553 1265.3181415550798 447.5373587234421Q1264.818293056679 447.7191218137696 1264.6592503526426 448.6960984242802L1264.6592503526426 448.6960984242802L1263.8413164461685 456.8754374890196Q1263.5232310380952 459.488281912478 1260.887666228346 459.488281912478L1260.887666228346 459.488281912478ZM1266.794966663991 393.23563548808903L1266.794966663991 430.20170398345283Q1266.794966663991 436.086284032807 1270.13486344876 440.9257263127778Q1273.4974806198193 445.74244820645765 1278.8822121707726 448.5370557202436Q1284.289664108017 451.3089428477386 1290.1742441573715 451.3089428477386L1290.1742441573715 451.3089428477386Q1297.5356493156369 451.3089428477386 1303.420229364991 447.6282402686059Q1309.327529800636 443.94753768947317 1312.7583081305684 436.086284032807Q1316.1890864605007 428.24775076243174 1316.1890864605007 415.97874216532267L1316.1890864605007 415.97874216532267Q1316.1890864605007 399.2792582414798 1309.8046579127458 390.2138241113937Q1303.420229364991 381.1256695950166 1291.3329838582094 381.1256695950166L1291.3329838582094 381.1256695950166Q1283.6307729055798 381.1256695950166 1277.3372259029888 384.6473294701127Q1271.0436789003975 388.16898934520884 1266.794966663991 393.23563548808903L1266.794966663991 393.23563548808903ZM1364.9470354408636 340.2289742713197L1364.9470354408636 456.716394784983Q1364.9470354408636 458.35226259793086 1364.2881442384264 458.9202722552044Q1363.6292530359888 459.488281912478 1361.993385223041 459.488281912478L1361.993385223041 459.488281912478L1353.4959607502287 459.488281912478Q1351.042159030807 459.488281912478 1351.042159030807 457.19352289709275L1351.042159030807 457.19352289709275L1351.2012017348434 340.3880169753563Q1351.2012017348434 338.11597834626207 1353.1551549558644 338.11597834626207L1353.1551549558644 338.11597834626207L1362.9703618335516 338.11597834626207Q1364.9470354408636 338.11597834626207 1364.9470354408636 340.2289742713197L1364.9470354408636 340.2289742713197ZM1426.4511211304457 461.12414972542587L1426.4511211304457 461.12414972542587Q1414.1821125333363 461.12414972542587 1404.7758726088864 455.48949392527203Q1395.369632684436 449.8321177388273 1390.212104996392 439.76698661193967Q1385.0545773083481 429.724575871343 1385.0545773083481 416.63763336776003L1385.0545773083481 416.63763336776003Q1385.0545773083481 403.0508423657763 1390.3711477004285 392.8266685348521Q1395.6877180925094 382.60249470392785 1405.0257968580868 376.8769573586103Q1414.3411552373732 371.15142001329275 1426.6101638344821 371.15142001329275L1426.6101638344821 371.15142001329275Q1439.0382151356275 371.15142001329275 1448.2854123560414 376.96783890377407Q1457.5326095764553 382.76153740796445 1462.6901372644993 392.98571123888865Q1467.8249445662523 403.2098850698129 1467.8249445662523 416.4558702774325L1467.8249445662523 416.4558702774325Q1467.8249445662523 429.54281278101547 1462.5992557193354 439.6079439079031Q1457.3735668724185 449.6730750347907 1448.126369652005 455.3986123801083Q1438.879172431591 461.12414972542587 1426.4511211304457 461.12414972542587L1426.4511211304457 461.12414972542587ZM1426.7692065385186 450.80909434933784L1426.7692065385186 450.80909434933784Q1435.2893513976223 450.80909434933784 1441.3329741510129 446.65126365809533Q1447.3765969044039 442.4707125805619 1450.5801713714268 434.7003404690595Q1453.7610254521587 426.9299683575571 1453.7610254521587 416.1377848693593L1453.7610254521587 416.1377848693593Q1453.7610254521587 405.34560138116154 1450.4892898262628 397.57522926965913Q1447.217554200367 389.8048571581567 1441.1739314469764 385.55614492175044Q1435.107588307295 381.2847122990532 1426.6101638344821 381.2847122990532L1426.6101638344821 381.2847122990532Q1418.2717820657062 381.2847122990532 1412.0463962219878 385.55614492175044Q1405.8437307645609 389.8048571581567 1402.481113593501 397.57522926965913Q1399.1184964224412 405.34560138116154 1399.1184964224412 416.1377848693593L1399.1184964224412 416.1377848693593Q1399.1184964224412 426.77092565352046 1402.481113593501 434.63217931018664Q1405.8437307645609 442.4707125805619 1412.0463962219878 446.65126365809533Q1418.2717820657062 450.80909434933784 1426.7692065385186 450.80909434933784L1426.7692065385186 450.80909434933784ZM1566.4768618415255 371.31046271732936L1566.4768618415255 371.31046271732936Q1568.1127296544732 371.31046271732936 1568.8397820157834 371.96935391976666Q1569.5895547633845 372.628245122204 1569.5895547633845 373.92330714078776L1569.5895547633845 373.92330714078776L1569.5895547633845 379.6488444861053Q1569.5895547633845 381.1256695950166 1568.8397820157834 381.94360350149054Q1568.1127296544732 382.76153740796445 1566.317819137489 382.60249470392785L1566.317819137489 382.60249470392785Q1563.7049747140304 382.60249470392785 1561.7283011067184 382.92058011200106Q1559.7743478856974 383.2613859063652 1557.7976742783853 384.0793198128392L1557.7976742783853 384.0793198128392Q1553.8897678363433 385.55614492175044 1554.5259386524895 387.8281835508447L1554.5259386524895 387.8281835508447Q1555.3438725589635 389.6458144541201 1556.343569555765 392.16777733241474Q1557.3205461662756 394.7124605970003 1557.3205461662756 398.96117283340664L1557.3205461662756 398.96117283340664Q1557.3205461662756 406.16353528763545 1553.548962041979 412.1389968821534Q1549.8000983039733 418.0917380903804 1541.8479631021437 421.7042795106403Q1533.9185482866046 425.2941005446092 1521.808582393532 425.2941005446092L1521.808582393532 425.2941005446092Q1513.4702006247562 425.2941005446092 1508.721639889949 426.2710771551197Q1503.995799541433 427.2707741519212 1502.019125934121 428.9066419648691Q1500.0651727130999 430.542509777817 1500.0651727130999 432.33742029480146L1500.0651727130999 432.33742029480146Q1500.0651727130999 434.95026471825986 1503.586832588196 436.086284032807Q1507.0857720770014 437.24502373364504 1514.9470257336675 437.72215184575487L1514.9470257336675 437.72215184575487L1536.054264597953 438.880891546593Q1550.43626912012 439.6988254530669 1557.1615034622391 445.74244820645765Q1563.8640174180669 451.80879134613934 1563.8640174180669 461.6239982238266L1563.8640174180669 461.6239982238266Q1563.8640174180669 473.8930068209357 1552.9809523847057 481.0044877300007Q1542.097887351344 488.1159686390658 1521.9903454838595 488.1159686390658L1521.9903454838595 488.1159686390658Q1501.2011920276473 488.1159686390658 1490.3181269942852 482.14050704454786Q1479.457782347215 476.16504545002994 1479.457782347215 465.0547765537589L1479.457782347215 465.0547765537589Q1479.457782347215 459.3292392084414 1483.456570334421 454.7397211776709Q1487.4553583216266 450.17292353319147 1494.816763479892 446.56038211293156L1494.816763479892 446.56038211293156Q1496.6343943831675 445.74244820645765 1494.816763479892 444.7654715959471L1494.816763479892 444.7654715959471Q1491.2269424459232 443.12960378299925 1489.2729892249022 440.7666836087412Q1487.2963156175902 438.3810430481922 1487.2963156175902 435.10930742229647L1487.2963156175902 435.10930742229647Q1487.2963156175902 432.81454840691123 1488.7731407265014 430.542509777817Q1490.2499658354127 428.24775076243174 1493.1127345080713 426.2710771551197Q1495.9755031807304 424.3171239340987 1500.0651727130999 422.8402988251874L1500.0651727130999 422.8402988251874Q1501.0421493236104 422.5222134171142 1501.0421493236104 422.0223649187135Q1501.0421493236104 421.54523680660367 1500.2242154171363 420.88634560416637L1500.2242154171363 420.88634560416637Q1493.0218529629078 417.2738041839064 1489.5910746329755 411.889072632953Q1486.1602963030427 406.48162069570867 1486.1602963030427 398.96117283340664L1486.1602963030427 398.96117283340664Q1486.1602963030427 386.1923157378968 1495.8164604766935 378.8309105796314Q1505.4499042640532 371.46950542136597 1523.1263647984065 371.46950542136597L1523.1263647984065 371.46950542136597Q1531.6237892712193 371.46950542136597 1537.5992508657373 373.446179028678Q1543.5747124602553 375.400132249699 1547.6643819926248 378.8309105796314L1547.6643819926248 378.8309105796314Q1548.6413586031354 379.6488444861053 1549.4592925096094 379.6488444861053Q1550.2772264160835 379.6488444861053 1551.0951603225571 378.8309105796314L1551.0951603225571 378.8309105796314Q1553.0718339298692 377.0360000626469 1555.525635649291 375.3319710908262Q1557.9794373687128 373.6052217327146 1560.8422060413718 372.4692024181674Q1563.7049747140304 371.31046271732936 1566.4768618415255 371.31046271732936L1566.4768618415255 371.31046271732936ZM1521.808582393532 416.63763336776003L1521.808582393532 416.63763336776003Q1533.259657084167 416.63763336776003 1538.8261517254482 411.95723379182584Q1544.392646366729 407.2995546021826 1544.392646366729 398.80213012937L1544.392646366729 398.80213012937Q1544.392646366729 390.12294256622994 1538.8261517254482 385.14717796851346Q1533.259657084167 380.14869298450606 1521.808582393532 380.14869298450606L1521.808582393532 380.14869298450606Q1510.8573562012975 380.14869298450606 1504.88189460678 385.14717796851346Q1498.906433012262 390.12294256622994 1498.906433012262 398.80213012937L1498.906433012262 398.80213012937Q1498.906433012262 407.2995546021826 1504.88189460678 411.95723379182584Q1510.8573562012975 416.63763336776003 1521.808582393532 416.63763336776003L1521.808582393532 416.63763336776003ZM1534.7364821930787 450.4910089412647L1507.4265778713652 448.8551411283168Q1504.4729276535427 448.6960984242802 1500.883106619574 450.58189048642845Q1497.2705651993138 452.4449621622857 1494.498678071819 455.7166977881815Q1491.726790944324 458.98843341407724 1491.726790944324 463.41890874081105L1491.726790944324 463.41890874081105Q1491.726790944324 468.4855548836913 1495.2257304331292 472.16625746282403Q1498.7473903082255 475.8469600419567 1505.8588712172905 477.7327521041049Q1512.9930725126464 479.61854416625323 1523.4444502064798 479.61854416625323L1523.4444502064798 479.61854416625323Q1537.0312412084636 479.61854416625323 1544.074560958656 475.59703579275634Q1551.0951603225571 471.59824780555044 1551.0951603225571 463.25986603677444L1551.0951603225571 463.25986603677444Q1551.0951603225571 457.8524140995301 1547.4144577434245 454.42163576959774Q1543.7337551642918 450.9908574396654 1534.7364821930787 450.4910089412647L1534.7364821930787 450.4910089412647Z " fill="#fad744" transform="matrix(0.5574705324978496,0,0,0.5574705324978496,0,69.70000610593792)"/></g></svg>